<svg width="182" height="182" viewBox="0 0 182 182" fill="none" xmlns="http://www.w3.org/2000/svg">
<rect width="182" height="182" fill="#D9D9D9"/>
<mask id="path-2-outside-1_449_9" maskUnits="userSpaceOnUse" x="68" y="65" width="45" height="51" fill="black">
<rect fill="white" x="68" y="65" width="45" height="51"/>
<path d="M70.4489 114L78.1761 67.4545H96.5398C100.055 67.4545 102.949 68.0758 105.222 69.3182C107.509 70.5606 109.116 72.3258 110.04 74.6136C110.979 76.8864 111.199 79.5682 110.699 82.6591C110.184 85.75 109.07 88.4015 107.358 90.6136C105.661 92.8258 103.449 94.5303 100.722 95.7273C98.0095 96.9091 94.8655 97.5 91.2898 97.5H78.9943L80.358 89.5909H91.0398C92.9186 89.5909 94.5246 89.3333 95.858 88.8182C97.1913 88.303 98.2443 87.5303 99.017 86.5C99.8049 85.4697 100.32 84.1894 100.562 82.6591C100.82 81.0985 100.729 79.7955 100.29 78.75C99.8504 77.6894 99.0549 76.8864 97.9034 76.3409C96.7519 75.7803 95.2367 75.5 93.358 75.5H86.7216L80.2898 114H70.4489ZM99.0852 92.8182L107.153 114H96.2898L88.4716 92.8182H99.0852Z"/>
</mask>
<path d="M70.4489 114L78.1761 67.4545H96.5398C100.055 67.4545 102.949 68.0758 105.222 69.3182C107.509 70.5606 109.116 72.3258 110.04 74.6136C110.979 76.8864 111.199 79.5682 110.699 82.6591C110.184 85.75 109.07 88.4015 107.358 90.6136C105.661 92.8258 103.449 94.5303 100.722 95.7273C98.0095 96.9091 94.8655 97.5 91.2898 97.5H78.9943L80.358 89.5909H91.0398C92.9186 89.5909 94.5246 89.3333 95.858 88.8182C97.1913 88.303 98.2443 87.5303 99.017 86.5C99.8049 85.4697 100.32 84.1894 100.562 82.6591C100.82 81.0985 100.729 79.7955 100.29 78.75C99.8504 77.6894 99.0549 76.8864 97.9034 76.3409C96.7519 75.7803 95.2367 75.5 93.358 75.5H86.7216L80.2898 114H70.4489ZM99.0852 92.8182L107.153 114H96.2898L88.4716 92.8182H99.0852Z" fill="#D9D9D9"/>
<path d="M70.4489 114L68.4759 113.672L68.0895 116H70.4489V114ZM78.1761 67.4545V65.4545H76.4808L76.2031 67.127L78.1761 67.4545ZM105.222 69.3182L104.262 71.0731L104.267 71.0757L105.222 69.3182ZM110.04 74.6136L108.185 75.3628L108.188 75.3702L108.191 75.3776L110.04 74.6136ZM110.699 82.6591L112.672 82.9879L112.673 82.9785L110.699 82.6591ZM107.358 90.6136L105.776 89.3895L105.771 89.3963L107.358 90.6136ZM100.722 95.7273L101.521 97.5608L101.525 97.5587L100.722 95.7273ZM78.9943 97.5L77.0234 97.1602L76.62 99.5H78.9943V97.5ZM80.358 89.5909V87.5909H78.6733L78.387 89.2511L80.358 89.5909ZM95.858 88.8182L96.5788 90.6838V90.6838L95.858 88.8182ZM99.017 86.5L97.4283 85.2851L97.4227 85.2925L97.417 85.3L99.017 86.5ZM100.562 82.6591L98.5892 82.3334L98.5871 82.3462L100.562 82.6591ZM100.29 78.75L98.442 79.5155L98.446 79.5249L100.29 78.75ZM97.9034 76.3409L97.028 78.1391L97.0376 78.1438L97.0472 78.1484L97.9034 76.3409ZM86.7216 75.5V73.5H85.028L84.7489 75.1704L86.7216 75.5ZM80.2898 114V116H81.9834L82.2624 114.33L80.2898 114ZM99.0852 92.8182L100.954 92.1063L100.464 90.8182H99.0852V92.8182ZM107.153 114V116H110.055L109.022 113.288L107.153 114ZM96.2898 114L94.4135 114.693L94.8961 116H96.2898V114ZM88.4716 92.8182V90.8182H85.6015L86.5953 93.5107L88.4716 92.8182ZM70.4489 114L72.4219 114.328L80.1491 67.7821L78.1761 67.4545L76.2031 67.127L68.4759 113.672L70.4489 114ZM78.1761 67.4545V69.4545H96.5398V67.4545V65.4545H78.1761V67.4545ZM96.5398 67.4545V69.4545C99.8342 69.4545 102.37 70.0387 104.262 71.0731L105.222 69.3182L106.181 67.5633C103.528 66.1128 100.276 65.4545 96.5398 65.4545V67.4545ZM105.222 69.3182L104.267 71.0757C106.171 72.1098 107.445 73.5302 108.185 75.3628L110.04 74.6136L111.894 73.8645C110.786 71.1213 108.848 69.0114 106.176 67.5606L105.222 69.3182ZM110.04 74.6136L108.191 75.3776C108.955 77.2259 109.181 79.5159 108.725 82.3397L110.699 82.6591L112.673 82.9785C113.216 79.6205 113.003 76.5468 111.888 73.8497L110.04 74.6136ZM110.699 82.6591L108.726 82.3303C108.259 85.1348 107.263 87.4691 105.776 89.3895L107.358 90.6136L108.94 91.8378C110.877 89.334 112.109 86.3652 112.672 82.9879L110.699 82.6591ZM107.358 90.6136L105.771 89.3963C104.293 91.3228 102.358 92.8248 99.9178 93.8959L100.722 95.7273L101.525 97.5587C104.54 96.2358 107.029 94.3287 108.945 91.831L107.358 90.6136ZM100.722 95.7273L99.9226 93.8938C97.5094 94.9454 94.6468 95.5 91.2898 95.5V97.5V99.5C95.0843 99.5 98.5095 98.8728 101.521 97.5608L100.722 95.7273ZM91.2898 97.5V95.5H78.9943V97.5V99.5H91.2898V97.5ZM78.9943 97.5L80.9652 97.8398L82.3289 89.9307L80.358 89.5909L78.387 89.2511L77.0234 97.1602L78.9943 97.5ZM80.358 89.5909V91.5909H91.0398V89.5909V87.5909H80.358V89.5909ZM91.0398 89.5909V91.5909C93.0917 91.5909 94.9558 91.3108 96.5788 90.6838L95.858 88.8182L95.1372 86.9526C94.0935 87.3558 92.7454 87.5909 91.0398 87.5909V89.5909ZM95.858 88.8182L96.5788 90.6838C98.2221 90.0489 99.5952 89.0625 100.617 87.7L99.017 86.5L97.417 85.3C96.8934 85.9981 96.1605 86.5572 95.1372 86.9526L95.858 88.8182ZM99.017 86.5L100.606 87.7149C101.631 86.3739 102.254 84.7668 102.538 82.972L100.562 82.6591L98.5871 82.3462C98.3866 83.612 97.9786 84.5655 97.4283 85.2851L99.017 86.5ZM100.562 82.6591L102.536 82.9848C102.832 81.1931 102.766 79.4793 102.134 77.9751L100.29 78.75L98.446 79.5249C98.6926 80.1116 98.8086 81.0038 98.5892 82.3334L100.562 82.6591ZM100.29 78.75L102.137 77.9845C101.487 76.414 100.306 75.266 98.7596 74.5334L97.9034 76.3409L97.0472 78.1484C97.8036 78.5067 98.2139 78.9647 98.4421 79.5155L100.29 78.75ZM97.9034 76.3409L98.7789 74.5427C97.2575 73.802 95.4095 73.5 93.358 73.5V75.5V77.5C95.064 77.5 96.2463 77.7586 97.028 78.1391L97.9034 76.3409ZM93.358 75.5V73.5H86.7216V75.5V77.5H93.358V75.5ZM86.7216 75.5L84.7489 75.1704L78.3171 113.67L80.2898 114L82.2624 114.33L88.6943 75.8296L86.7216 75.5ZM80.2898 114V112H70.4489V114V116H80.2898V114ZM99.0852 92.8182L97.2162 93.5301L105.284 114.712L107.153 114L109.022 113.288L100.954 92.1063L99.0852 92.8182ZM107.153 114V112H96.2898V114V116H107.153V114ZM96.2898 114L98.166 113.307L90.3479 92.1257L88.4716 92.8182L86.5953 93.5107L94.4135 114.693L96.2898 114ZM88.4716 92.8182V94.8182H99.0852V92.8182V90.8182H88.4716V92.8182Z" fill="#004E36" mask="url(#path-2-outside-1_449_9)"/>
</svg>
