<svg width="32" height="32" viewBox="0 0 32 32" fill="none" xmlns="http://www.w3.org/2000/svg">
<circle cx="16" cy="16" r="16" fill="#D9D9D9"/>
<path d="M9.125 24.25C9.125 24.25 7.75 24.25 7.75 22.875C7.75 21.5 9.125 17.375 16 17.375C22.875 17.375 24.25 21.5 24.25 22.875C24.25 24.25 22.875 24.25 22.875 24.25H9.125ZM16 16C17.094 16 18.1432 15.5654 18.9168 14.7918C19.6904 14.0182 20.125 12.969 20.125 11.875C20.125 10.781 19.6904 9.73177 18.9168 8.95818C18.1432 8.1846 17.094 7.75 16 7.75C14.906 7.75 13.8568 8.1846 13.0832 8.95818C12.3096 9.73177 11.875 10.781 11.875 11.875C11.875 12.969 12.3096 14.0182 13.0832 14.7918C13.8568 15.5654 14.906 16 16 16Z" fill="#7F7F7F"/>
</svg>
