<svg width="187" height="30" viewBox="0 0 187 30" fill="none" xmlns="http://www.w3.org/2000/svg">
<path d="M0.000266328 29.4886L4.82981 0.397738H16.3071C18.5041 0.397738 20.3128 0.785995 21.7332 1.56251C23.1631 2.33903 24.1669 3.44225 24.7446 4.87217C25.3317 6.29262 25.469 7.96876 25.1565 9.90058C24.8345 11.8324 24.1385 13.4896 23.0684 14.8722C22.0078 16.2547 20.6253 17.3201 18.9207 18.0682C17.2256 18.8068 15.2607 19.1761 13.0258 19.1761H5.34118L6.19345 14.233H12.8696C14.0438 14.233 15.0476 14.072 15.8809 13.75C16.7143 13.428 17.3724 12.9451 17.8554 12.3011C18.3478 11.6572 18.6698 10.857 18.8213 9.90058C18.9823 8.9252 18.9255 8.11081 18.6508 7.4574C18.3762 6.79452 17.8791 6.29262 17.1594 5.95171C16.4397 5.60134 15.4927 5.42615 14.3184 5.42615H10.1707L6.15083 29.4886H0.000266328ZM17.898 16.25L22.9406 29.4886H16.1508L11.2645 16.25H17.898ZM35.9058 29.9148C33.6804 29.9148 31.8386 29.4413 30.3802 28.4943C28.9219 27.5379 27.8944 26.2121 27.2979 24.5171C26.7107 22.8125 26.6018 20.8286 26.9711 18.5654C27.331 16.3305 28.0791 14.375 29.2155 12.6989C30.3518 11.0227 31.796 9.72065 33.5479 8.79262C35.2997 7.85512 37.2742 7.38637 39.4711 7.38637C41.6871 7.38637 43.5242 7.86459 44.9825 8.82103C46.4408 9.768 47.4683 11.0938 48.0649 12.7983C48.6615 14.5029 48.7751 16.4868 48.4058 18.75C48.0365 20.9754 47.2789 22.9261 46.1331 24.6023C44.9872 26.2784 43.5431 27.5852 41.8007 28.5227C40.0583 29.4508 38.0933 29.9148 35.9058 29.9148ZM36.5024 25.2273C37.5251 25.2273 38.4295 24.9385 39.2155 24.3608C40.0109 23.7737 40.6691 22.9782 41.1899 21.9744C41.7202 20.9612 42.0895 19.8154 42.2979 18.5369C42.5062 17.2775 42.5204 16.16 42.3405 15.1847C42.1605 14.1998 41.7818 13.4233 41.2041 12.8551C40.6359 12.2869 39.8547 12.0029 38.8604 12.0029C37.8376 12.0029 36.9285 12.2964 36.1331 12.8835C35.3376 13.4612 34.6795 14.2566 34.1586 15.2699C33.6378 16.2832 33.2732 17.4337 33.0649 18.7216C32.866 19.9716 32.8518 21.089 33.0223 22.0739C33.1927 23.0493 33.5668 23.821 34.1444 24.3892C34.7221 24.9479 35.5081 25.2273 36.5024 25.2273ZM60.4371 29.9148C58.2022 29.9148 56.3509 29.4602 54.8831 28.5511C53.4153 27.6326 52.3831 26.3352 51.7865 24.6591C51.1994 22.9735 51.0999 20.9801 51.4882 18.679C51.867 16.4347 52.6293 14.465 53.7751 12.7699C54.9304 11.0748 56.3793 9.7538 58.1217 8.80683C59.8641 7.85986 61.8054 7.38637 63.9456 7.38637C65.385 7.38637 66.6871 7.61838 67.8518 8.0824C69.0261 8.53694 70.0015 9.22823 70.778 10.1563C71.5545 11.0748 72.0848 12.2254 72.3689 13.608C72.6624 14.9905 72.6577 16.6099 72.3547 18.4659L72.0848 20.1279H53.6757L54.2581 16.3779H66.9854C67.1274 15.5066 67.0706 14.7349 66.8149 14.0625C66.5592 13.3902 66.1331 12.8646 65.5365 12.4858C64.9399 12.0975 64.206 11.9034 63.3348 11.9034C62.4446 11.9034 61.6113 12.1212 60.8348 12.5568C60.0583 12.9924 59.4049 13.5654 58.8746 14.2756C58.3537 14.9763 58.0175 15.7386 57.866 16.5625L57.1984 20.2841C57.009 21.4299 57.0469 22.3816 57.3121 23.1392C57.5867 23.8968 58.0602 24.465 58.7325 24.8438C59.4049 25.2131 60.2571 25.3977 61.2893 25.3977C61.9617 25.3977 62.5914 25.303 63.1785 25.1136C63.7751 24.9243 64.3054 24.6449 64.7694 24.2756C65.2335 23.8968 65.6122 23.428 65.9058 22.8693L71.4314 23.2386C70.92 24.5833 70.1435 25.7576 69.1018 26.7614C68.0602 27.7557 66.8054 28.5322 65.3376 29.0909C63.8793 29.6402 62.2458 29.9148 60.4371 29.9148ZM93.8 8.84944C93.8473 7.66573 93.5017 6.7519 92.7631 6.10796C92.0339 5.46403 90.9307 5.14206 89.4534 5.14206C88.4496 5.14206 87.5784 5.2841 86.8398 5.56819C86.1011 5.84281 85.5093 6.22634 85.0642 6.71876C84.6286 7.20171 84.3587 7.76043 84.2545 8.3949C84.1504 8.91573 84.1835 9.37028 84.354 9.75853C84.5339 10.1468 84.8132 10.483 85.192 10.7671C85.5803 11.0417 86.0396 11.2832 86.5699 11.4915C87.1002 11.6904 87.6636 11.8608 88.2602 12.0029L90.7602 12.6279C91.9818 12.9119 93.0803 13.2907 94.0557 13.7642C95.0405 14.2377 95.8644 14.8201 96.5273 15.5114C97.1996 16.2027 97.6731 17.0171 97.9477 17.9546C98.2223 18.8921 98.2602 19.9669 98.0613 21.179C97.7583 22.9593 97.0528 24.5029 95.9449 25.8097C94.8369 27.107 93.3833 28.1155 91.5841 28.8352C89.7848 29.5455 87.7015 29.9006 85.3341 29.9006C82.9856 29.9006 81.0017 29.5407 79.3824 28.821C77.7631 28.1013 76.5841 27.036 75.8454 25.625C75.1163 24.2046 74.8985 22.4479 75.192 20.3551H81.1437C81.0396 21.3305 81.1816 22.1449 81.5699 22.7983C81.9676 23.4422 82.5595 23.9299 83.3454 24.2614C84.1314 24.5833 85.0547 24.7443 86.1153 24.7443C87.1665 24.7443 88.0992 24.5928 88.9136 24.2898C89.7375 23.9868 90.4051 23.5654 90.9165 23.0256C91.4278 22.4858 91.7403 21.8655 91.854 21.1648C91.9676 20.5114 91.8682 19.9621 91.5557 19.5171C91.2432 19.072 90.7413 18.6932 90.05 18.3807C89.3682 18.0587 88.5206 17.7746 87.5074 17.5284L84.4676 16.733C82.1191 16.1364 80.3435 15.2036 79.1409 13.9347C77.9382 12.6657 77.5074 10.9564 77.8483 8.80683C78.1513 7.04546 78.8852 5.50664 80.05 4.19035C81.2242 2.86459 82.7015 1.83713 84.4818 1.10796C86.2716 0.369328 88.2271 1.00136e-05 90.3483 1.00136e-05C92.5074 1.00136e-05 94.3303 0.374063 95.817 1.12217C97.3038 1.86081 98.3881 2.893 99.0699 4.21876C99.7517 5.54452 99.96 7.08808 99.6949 8.84944H93.8ZM115.948 7.67046L115.196 12.2159H102.042L102.809 7.67046H115.948ZM106.644 2.44319H112.696L109.315 22.7841C109.22 23.3428 109.234 23.7784 109.358 24.0909C109.481 24.394 109.684 24.607 109.968 24.7301C110.262 24.8532 110.612 24.9148 111.019 24.9148C111.304 24.9148 111.592 24.8911 111.886 24.8438C112.179 24.7869 112.402 24.7443 112.554 24.7159L112.781 29.2188C112.44 29.3229 111.981 29.4366 111.403 29.5597C110.835 29.6828 110.162 29.7585 109.386 29.7869C107.909 29.8438 106.659 29.6496 105.636 29.2046C104.613 28.75 103.879 28.054 103.434 27.1165C102.989 26.179 102.894 25 103.15 23.5796L106.644 2.44319ZM122.419 29.9006C121.036 29.9006 119.838 29.6591 118.825 29.1761C117.821 28.6837 117.082 27.9546 116.609 26.9886C116.135 26.0227 116.017 24.8248 116.254 23.3949C116.462 22.1828 116.855 21.1695 117.433 20.3551C118.02 19.5313 118.735 18.8684 119.578 18.3665C120.42 17.8646 121.353 17.4811 122.376 17.2159C123.408 16.9508 124.474 16.7708 125.572 16.6761C126.841 16.5436 127.873 16.4157 128.669 16.2926C129.474 16.1695 130.075 15.9943 130.473 15.7671C130.87 15.5303 131.112 15.1799 131.197 14.7159V14.6307C131.339 13.7405 131.173 13.0493 130.7 12.5568C130.236 12.0549 129.492 11.804 128.47 11.804C127.39 11.804 126.472 12.0407 125.714 12.5142C124.966 12.9877 124.431 13.589 124.109 14.3182L118.598 13.8636C119.09 12.5379 119.833 11.3921 120.828 10.4261C121.831 9.45077 123.039 8.70266 124.45 8.18183C125.861 7.65153 127.442 7.38637 129.194 7.38637C130.406 7.38637 131.538 7.52842 132.589 7.81251C133.65 8.0966 134.563 8.53694 135.331 9.13353C136.107 9.73012 136.666 10.4972 137.007 11.4347C137.357 12.3627 137.428 13.4754 137.22 14.7727L134.762 29.4886H129.024L129.535 26.4631H129.365C128.901 27.1449 128.332 27.7462 127.66 28.2671C126.988 28.7784 126.216 29.1809 125.345 29.4744C124.474 29.7585 123.498 29.9006 122.419 29.9006ZM124.848 25.7244C125.728 25.7244 126.538 25.5493 127.277 25.1989C128.025 24.839 128.64 24.3561 129.123 23.75C129.616 23.144 129.928 22.4574 130.061 21.6904L130.43 19.375C130.241 19.4981 129.966 19.607 129.606 19.7017C129.256 19.7964 128.872 19.8864 128.456 19.9716C128.048 20.0474 127.636 20.1184 127.22 20.1847C126.803 20.2415 126.429 20.2983 126.098 20.3551C125.368 20.4593 124.715 20.625 124.137 20.8523C123.56 21.0796 123.091 21.3873 122.731 21.7756C122.371 22.1544 122.149 22.6279 122.063 23.196C121.931 24.0199 122.125 24.6496 122.646 25.0852C123.176 25.5114 123.91 25.7244 124.848 25.7244ZM149.258 29.9148C147.014 29.9148 145.167 29.4413 143.718 28.4943C142.279 27.5379 141.27 26.2121 140.693 24.5171C140.125 22.822 140.025 20.8712 140.394 18.6648C140.754 16.4299 141.507 14.4697 142.653 12.7841C143.799 11.089 145.252 9.768 147.014 8.82103C148.785 7.86459 150.773 7.38637 152.98 7.38637C154.883 7.38637 156.493 7.73202 157.809 8.42331C159.126 9.11459 160.091 10.0852 160.707 11.3352C161.322 12.5852 161.531 14.053 161.332 15.7386H155.636C155.645 14.6591 155.366 13.7832 154.798 13.1108C154.23 12.4385 153.396 12.1023 152.298 12.1023C151.351 12.1023 150.48 12.358 149.684 12.8693C148.898 13.3712 148.231 14.1051 147.681 15.071C147.142 16.0369 146.763 17.2065 146.545 18.5796C146.318 19.9716 146.313 21.1553 146.531 22.1307C146.749 23.1061 147.165 23.8494 147.781 24.3608C148.396 24.8722 149.173 25.1279 150.11 25.1279C150.811 25.1279 151.46 24.9858 152.056 24.7017C152.662 24.4176 153.193 24.0057 153.647 23.4659C154.102 22.9167 154.452 22.2585 154.698 21.4915H160.409C160.02 23.1676 159.315 24.6354 158.292 25.8949C157.279 27.1544 156.005 28.1392 154.471 28.8494C152.937 29.5597 151.199 29.9148 149.258 29.9148ZM169.453 23.2102L170.661 15.9517H171.541L179.936 7.67046H186.882L175.689 18.6364H174.24L169.453 23.2102ZM162.934 29.4886L167.763 0.397738H173.814L168.985 29.4886H162.934ZM176.57 29.4886L171.74 19.9858L176.47 15.7102L183.658 29.4886H176.57Z" fill="black"/>
</svg>
