<svg width="169" height="27" viewBox="0 0 169 27" fill="none" xmlns="http://www.w3.org/2000/svg">
<path d="M4.43831e-05 26.5398L4.34664 0.357957H14.6762C16.6535 0.357957 18.2813 0.707389 19.5597 1.40625C20.8466 2.10512 21.75 3.09801 22.2699 4.38495C22.7983 5.66336 22.9219 7.17188 22.6407 8.91051C22.3509 10.6492 21.7245 12.1406 20.7614 13.3849C19.8069 14.6293 18.5625 15.5881 17.0285 16.2614C15.5029 16.9261 13.7344 17.2585 11.7231 17.2585H4.80686L5.57391 12.8097H11.5824C12.6392 12.8097 13.5427 12.6648 14.2927 12.375C15.0427 12.0852 15.635 11.6506 16.0696 11.071C16.5128 10.4915 16.8026 9.77131 16.939 8.91051C17.0839 8.03267 17.0327 7.29972 16.7856 6.71165C16.5384 6.11506 16.091 5.66335 15.4432 5.35654C14.7955 5.0412 13.9432 4.88353 12.8864 4.88353H9.15345L5.53556 26.5398H4.43831e-05ZM16.108 14.625L20.6464 26.5398H14.5356L10.1378 14.625H16.108ZM32.315 26.9233C30.3122 26.9233 28.6545 26.4972 27.342 25.6449C26.0295 24.7841 25.1048 23.5909 24.5679 22.0653C24.0395 20.5313 23.9415 18.7457 24.2738 16.7088C24.5977 14.6974 25.271 12.9375 26.2937 11.429C27.3165 9.92046 28.6162 8.74858 30.1929 7.91336C31.7696 7.06961 33.5466 6.64773 35.5238 6.64773C37.5182 6.64773 39.1716 7.07813 40.4841 7.93892C41.7966 8.7912 42.7213 9.98438 43.2582 11.5185C43.7951 13.0526 43.8974 14.8381 43.565 16.875C43.2326 18.8778 42.5508 20.6335 41.5196 22.142C40.4883 23.6506 39.1886 24.8267 37.6204 25.6705C36.0522 26.5057 34.2838 26.9233 32.315 26.9233ZM32.852 22.7045C33.7724 22.7045 34.5863 22.4446 35.2937 21.9247C36.0096 21.3963 36.602 20.6804 37.0707 19.777C37.548 18.8651 37.8804 17.8338 38.0679 16.6832C38.2554 15.5497 38.2682 14.544 38.1062 13.6662C37.9443 12.7798 37.6034 12.081 37.0835 11.5696C36.5721 11.0582 35.869 10.8026 34.9741 10.8026C34.0537 10.8026 33.2355 11.0668 32.5196 11.5952C31.8037 12.1151 31.2113 12.831 30.7426 13.7429C30.2738 14.6548 29.9457 15.6903 29.7582 16.8494C29.5792 17.9744 29.5665 18.9801 29.7199 19.8665C29.8733 20.7443 30.2099 21.4389 30.7298 21.9503C31.2497 22.4531 31.9571 22.7045 32.852 22.7045ZM54.3932 26.9233C52.3818 26.9233 50.7156 26.5142 49.3946 25.696C48.0736 24.8693 47.1446 23.7017 46.6076 22.1932C46.0792 20.6761 45.9897 18.8821 46.3392 16.8111C46.6801 14.7912 47.3662 13.0185 48.3974 11.4929C49.4372 9.96733 50.7412 8.77841 52.3093 7.92614C53.8775 7.07387 55.6247 6.64773 57.5508 6.64773C58.8463 6.64773 60.0182 6.85654 61.0665 7.27415C62.1233 7.68324 63.0011 8.3054 63.7 9.14063C64.3988 9.96733 64.8761 11.0028 65.1318 12.2472C65.396 13.4915 65.3917 14.9489 65.119 16.6193L64.8761 18.1151H48.3079L48.8321 14.7401H60.2866C60.4145 13.956 60.3633 13.2614 60.1332 12.6563C59.9031 12.0511 59.5196 11.5781 58.9826 11.2372C58.4457 10.8878 57.7852 10.7131 57.0011 10.7131C56.2 10.7131 55.45 10.9091 54.7511 11.3011C54.0522 11.6932 53.4642 12.2088 52.9869 12.848C52.5182 13.4787 52.2156 14.1648 52.0792 14.9063L51.4784 18.2557C51.3079 19.2869 51.342 20.1435 51.5807 20.8253C51.8278 21.5071 52.254 22.0185 52.8591 22.3594C53.4642 22.6918 54.2312 22.858 55.1602 22.858C55.7653 22.858 56.3321 22.7727 56.8605 22.6023C57.3974 22.4318 57.8747 22.1804 58.2923 21.848C58.7099 21.5071 59.0508 21.0852 59.315 20.5824L64.288 20.9148C63.8278 22.125 63.129 23.1818 62.1915 24.0852C61.254 24.9801 60.1247 25.679 58.8037 26.1818C57.4912 26.6761 56.021 26.9233 54.3932 26.9233ZM84.4198 7.96449C84.4624 6.89915 84.1513 6.07671 83.4866 5.49716C82.8303 4.91762 81.8374 4.62784 80.5079 4.62784C79.6044 4.62784 78.8204 4.75568 78.1556 5.01137C77.4908 5.25853 76.9581 5.6037 76.5576 6.04688C76.1655 6.48154 75.9226 6.98438 75.8289 7.5554C75.7351 8.02415 75.765 8.43324 75.9184 8.78267C76.0803 9.13211 76.3317 9.43466 76.6726 9.69034C77.0221 9.9375 77.4354 10.1548 77.9127 10.3423C78.39 10.5213 78.8971 10.6747 79.434 10.8026L81.684 11.3651C82.7834 11.6207 83.7721 11.9617 84.6499 12.3878C85.5363 12.8139 86.2777 13.3381 86.8743 13.9602C87.4794 14.5824 87.9056 15.3153 88.1527 16.1591C88.3999 17.0028 88.434 17.9702 88.255 19.0611C87.9823 20.6634 87.3473 22.0526 86.3502 23.2287C85.353 24.3963 84.0448 25.304 82.4255 25.9517C80.8062 26.5909 78.9312 26.9105 76.8005 26.9105C74.6868 26.9105 72.9013 26.5867 71.4439 25.9389C69.9866 25.2912 68.9255 24.3324 68.2607 23.0625C67.6044 21.7841 67.4084 20.2031 67.6726 18.3196H73.0292C72.9354 19.1974 73.0633 19.9304 73.4127 20.5185C73.7706 21.098 74.3033 21.5369 75.0107 21.8352C75.7181 22.125 76.5491 22.2699 77.5036 22.2699C78.4496 22.2699 79.2891 22.1335 80.0221 21.8608C80.7635 21.5881 81.3644 21.2088 81.8246 20.723C82.2848 20.2372 82.5661 19.679 82.6684 19.0483C82.7706 18.4602 82.6812 17.9659 82.3999 17.5653C82.1187 17.1648 81.6669 16.8239 81.0448 16.5426C80.4312 16.2528 79.6684 15.9972 78.7564 15.7756L76.0206 15.0597C73.907 14.5227 72.309 13.6832 71.2266 12.5412C70.1442 11.3992 69.7564 9.8608 70.0633 7.92614C70.336 6.34091 70.9965 4.95597 72.0448 3.77131C73.1016 2.57813 74.4312 1.65341 76.0334 0.997162C77.6442 0.332389 79.4042 2.14577e-06 81.3133 2.14577e-06C83.2564 2.14577e-06 84.8971 0.33665 86.2351 1.00995C87.5732 1.67472 88.5491 2.6037 89.1627 3.79688C89.7763 4.99006 89.9638 6.37926 89.7252 7.96449H84.4198ZM104.353 6.90341L103.676 10.9943H91.8378L92.5281 6.90341H104.353ZM95.9798 2.19887H101.426L98.3832 20.5057C98.298 21.0085 98.3108 21.4006 98.4216 21.6818C98.5324 21.9545 98.7156 22.1463 98.9713 22.2571C99.2355 22.3679 99.5508 22.4233 99.9173 22.4233C100.173 22.4233 100.433 22.402 100.697 22.3594C100.961 22.3082 101.162 22.2699 101.298 22.2443L101.503 26.2969C101.196 26.3906 100.782 26.4929 100.262 26.6037C99.7511 26.7145 99.146 26.7827 98.4471 26.8082C97.1176 26.8594 95.9926 26.6847 95.0721 26.2841C94.1517 25.875 93.4912 25.2486 93.0906 24.4048C92.69 23.5611 92.6048 22.5 92.8349 21.2216L95.9798 2.19887ZM110.177 26.9105C108.932 26.9105 107.854 26.6932 106.942 26.2585C106.039 25.8153 105.374 25.1591 104.948 24.2898C104.522 23.4205 104.415 22.3423 104.628 21.0554C104.816 19.9645 105.169 19.0526 105.689 18.3196C106.218 17.5781 106.861 16.9815 107.62 16.5298C108.378 16.0781 109.218 15.733 110.138 15.4943C111.067 15.2557 112.026 15.0938 113.015 15.0085C114.157 14.8892 115.086 14.7742 115.802 14.6634C116.526 14.5526 117.067 14.3949 117.425 14.1903C117.783 13.9773 118 13.6619 118.077 13.2443V13.1676C118.205 12.3665 118.056 11.7443 117.63 11.3011C117.212 10.8494 116.543 10.6236 115.623 10.6236C114.651 10.6236 113.824 10.8367 113.142 11.2628C112.469 11.6889 111.988 12.2301 111.698 12.8864L106.738 12.4773C107.181 11.2841 107.85 10.2528 108.745 9.38353C109.648 8.50568 110.735 7.83239 112.005 7.36364C113.275 6.88637 114.698 6.64773 116.275 6.64773C117.365 6.64773 118.384 6.77557 119.33 7.03125C120.284 7.28693 121.107 7.68324 121.797 8.22017C122.496 8.7571 122.999 9.44745 123.306 10.2912C123.621 11.1264 123.685 12.1278 123.498 13.2955L121.286 26.5398H116.121L116.581 23.8168H116.428C116.01 24.4304 115.499 24.9716 114.894 25.4403C114.289 25.9006 113.594 26.2628 112.81 26.527C112.026 26.7827 111.148 26.9105 110.177 26.9105ZM112.363 23.152C113.155 23.152 113.884 22.9943 114.549 22.679C115.222 22.3551 115.776 21.9205 116.211 21.375C116.654 20.8295 116.935 20.2117 117.054 19.5213L117.387 17.4375C117.216 17.5483 116.969 17.6463 116.645 17.7315C116.33 17.8168 115.985 17.8977 115.61 17.9744C115.243 18.0426 114.873 18.1065 114.498 18.1662C114.123 18.2173 113.786 18.2685 113.488 18.3196C112.831 18.4134 112.243 18.5625 111.723 18.767C111.204 18.9716 110.782 19.2486 110.458 19.598C110.134 19.9389 109.934 20.3651 109.857 20.8764C109.738 21.6179 109.912 22.1847 110.381 22.5767C110.858 22.9602 111.519 23.152 112.363 23.152ZM134.332 26.9233C132.312 26.9233 130.65 26.4972 129.346 25.6449C128.051 24.7841 127.143 23.5909 126.623 22.0653C126.112 20.5398 126.022 18.7841 126.355 16.7983C126.679 14.7869 127.356 13.0227 128.387 11.5057C129.419 9.98012 130.727 8.7912 132.312 7.93892C133.906 7.07813 135.696 6.64773 137.682 6.64773C139.395 6.64773 140.843 6.95881 142.028 7.58097C143.213 8.20313 144.082 9.07671 144.636 10.2017C145.19 11.3267 145.378 12.6477 145.199 14.1648H140.072C140.081 13.1932 139.829 12.4048 139.318 11.7997C138.807 11.1946 138.057 10.892 137.068 10.892C136.216 10.892 135.432 11.1222 134.716 11.5824C134.008 12.0341 133.407 12.6946 132.913 13.5639C132.427 14.4332 132.086 15.4858 131.89 16.7216C131.686 17.9744 131.682 19.0398 131.878 19.9176C132.074 20.7955 132.449 21.4645 133.003 21.9247C133.557 22.3849 134.255 22.6151 135.099 22.6151C135.73 22.6151 136.314 22.4872 136.851 22.2315C137.396 21.9759 137.873 21.6051 138.282 21.1193C138.691 20.625 139.007 20.0327 139.228 19.3423H144.368C144.018 20.8509 143.383 22.1719 142.463 23.3054C141.551 24.4389 140.405 25.3253 139.024 25.9645C137.643 26.6037 136.079 26.9233 134.332 26.9233ZM152.508 20.8892L153.595 14.3565H154.387L161.943 6.90341H168.194L158.12 16.7727H156.816L152.508 20.8892ZM146.64 26.5398L150.987 0.357957H156.433L152.086 26.5398H146.64ZM158.913 26.5398L154.566 17.9872L158.823 14.1392L165.292 26.5398H158.913Z" fill="white"/>
</svg>
