<svg width="20" height="20" viewBox="0 0 20 20" fill="none" xmlns="http://www.w3.org/2000/svg">
<g clip-path="url(#clip0_278_502)">
<path d="M17.5 1.25C17.8315 1.25 18.1495 1.3817 18.3839 1.61612C18.6183 1.85054 18.75 2.16848 18.75 2.5V12.5C18.75 12.8315 18.6183 13.1495 18.3839 13.3839C18.1495 13.6183 17.8315 13.75 17.5 13.75H5.5175C4.85451 13.7501 4.21873 14.0136 3.75 14.4825L1.25 16.9825V2.5C1.25 2.16848 1.3817 1.85054 1.61612 1.61612C1.85054 1.3817 2.16848 1.25 2.5 1.25H17.5ZM2.5 0C1.83696 0 1.20107 0.263392 0.732233 0.732233C0.263392 1.20107 0 1.83696 0 2.5L0 18.4913C2.62686e-05 18.6149 0.0367407 18.7358 0.105497 18.8386C0.174252 18.9414 0.271959 19.0215 0.386249 19.0687C0.50054 19.116 0.626276 19.1282 0.747545 19.104C0.868814 19.0797 0.980163 19.0201 1.0675 18.9325L4.63375 15.3663C4.86812 15.1318 5.18601 15.0001 5.5175 15H17.5C18.163 15 18.7989 14.7366 19.2678 14.2678C19.7366 13.7989 20 13.163 20 12.5V2.5C20 1.83696 19.7366 1.20107 19.2678 0.732233C18.7989 0.263392 18.163 0 17.5 0L2.5 0Z" fill="#4E4E4E"/>
<path d="M8.8325 5.94998C8.589 5.57079 8.22902 5.28087 7.80664 5.1238C7.38426 4.96673 6.92231 4.951 6.49023 5.07896C6.05814 5.20692 5.67926 5.47167 5.41053 5.83341C5.1418 6.19515 4.99774 6.63435 5 7.08498C5.00022 7.45815 5.10065 7.82441 5.2908 8.1455C5.48095 8.46659 5.75383 8.73072 6.08094 8.91031C6.40806 9.08989 6.7774 9.17834 7.15037 9.16641C7.52335 9.15448 7.88628 9.0426 8.20125 8.84248C8.0375 9.32873 7.7325 9.84748 7.23 10.3675C7.13385 10.4669 7.08116 10.6005 7.0835 10.7388C7.08585 10.8771 7.14304 11.0088 7.2425 11.105C7.34195 11.2011 7.47553 11.2538 7.61383 11.2515C7.75214 11.2491 7.88385 11.1919 7.98 11.0925C9.8375 9.16748 9.59625 7.07498 8.8325 5.95248V5.94998ZM13.8325 5.94998C13.589 5.57079 13.229 5.28087 12.8066 5.1238C12.3843 4.96673 11.9223 4.951 11.4902 5.07896C11.0581 5.20692 10.6793 5.47167 10.4105 5.83341C10.1418 6.19515 9.99774 6.63435 10 7.08498C10.0002 7.45815 10.1007 7.82441 10.2908 8.1455C10.4809 8.46659 10.7538 8.73072 11.0809 8.91031C11.4081 9.08989 11.7774 9.17834 12.1504 9.16641C12.5234 9.15448 12.8863 9.0426 13.2012 8.84248C13.0375 9.32873 12.7325 9.84748 12.23 10.3675C12.1339 10.4669 12.0812 10.6005 12.0835 10.7388C12.0858 10.8771 12.143 11.0088 12.2425 11.105C12.342 11.2011 12.4755 11.2538 12.6138 11.2515C12.7521 11.2491 12.8839 11.1919 12.98 11.0925C14.8375 9.16748 14.5962 7.07498 13.8325 5.95248V5.94998Z" fill="#4E4E4E"/>
</g>
<defs>
<clipPath id="clip0_278_502">
<rect width="20" height="20" fill="white"/>
</clipPath>
</defs>
</svg>
