<svg width="18" height="18" viewBox="0 0 18 18" fill="none" xmlns="http://www.w3.org/2000/svg">
<g clip-path="url(#clip0_278_478)">
<path d="M9 18.018C11.0458 18.0192 13.0223 17.2771 14.5618 15.9297C16.1012 14.5824 17.0987 12.7217 17.3686 10.6938C17.6386 8.66589 17.1625 6.609 16.0291 4.90589C14.8957 3.20279 13.1821 1.96949 11.2073 1.4355C11.2554 1.26794 11.2639 1.09148 11.2321 0.920065C11.2004 0.748647 11.1292 0.586955 11.0243 0.447749C10.9193 0.308543 10.7834 0.195633 10.6274 0.117929C10.4713 0.0402251 10.2993 -0.000146472 10.125 3.99304e-07H7.875C7.70067 -0.000146472 7.52869 0.0402251 7.37262 0.117929C7.21656 0.195633 7.0807 0.308543 6.97575 0.447749C6.8708 0.586955 6.79964 0.748647 6.76788 0.920065C6.73612 1.09148 6.74464 1.26794 6.79275 1.4355C4.8179 1.96949 3.10432 3.20279 1.9709 4.90589C0.837488 6.609 0.361448 8.66589 0.631374 10.6938C0.901301 12.7217 1.89881 14.5824 3.43826 15.9297C4.9777 17.2771 6.95423 18.0192 9 18.018ZM16.3125 9.5805C16.3125 11.5199 15.5421 13.3799 14.1707 14.7512C12.7994 16.1226 10.9394 16.893 9 16.893C7.06061 16.893 5.20065 16.1226 3.82929 14.7512C2.45793 13.3799 1.6875 11.5199 1.6875 9.5805C1.6875 7.6411 2.45793 5.78114 3.82929 4.40978C5.20065 3.03842 7.06061 2.268 9 2.268C10.9394 2.268 12.7994 3.03842 14.1707 4.40978C15.5421 5.78114 16.3125 7.6411 16.3125 9.5805Z" fill="#F6F6F6"/>
<path d="M7.8075 8.37L13.3763 5.18625L10.1925 10.755L4.62488 13.9387L7.8075 8.37Z" fill="#F6F6F6"/>
</g>
<defs>
<clipPath id="clip0_278_478">
<rect width="18" height="18" fill="white"/>
</clipPath>
</defs>
</svg>
