<svg width="28" height="28" viewBox="0 0 28 28" fill="none" xmlns="http://www.w3.org/2000/svg">
<g clip-path="url(#clip0_278_424)">
<path d="M5.73408 18.7691L3.32809 25.5852L7.68871 24.1305L10.1689 28L12.6049 21.1L10.2908 19.0845L5.73408 18.7691Z" fill="#C5C200"/>
<path d="M22.2668 18.7691L17.711 19.0845L15.396 21.1L17.8311 28L20.3113 24.1305L24.6728 25.5852L22.2668 18.7691Z" fill="#C5C200"/>
<path d="M21.1601 17.287L21.4427 13.209L24.1269 10.1274L21.4427 7.04483L21.1601 2.96685L17.0839 2.68421L14.0013 0L10.9179 2.68421L6.84078 2.96685L6.55814 7.04571L3.87482 10.1283L6.55814 13.2099L6.84078 17.287L10.9188 17.5688L14.0022 20.2512L17.0847 17.5688L21.1601 17.287ZM13.9474 15.7449C10.8154 15.7449 8.27518 13.2055 8.27518 10.0744C8.27518 6.94325 10.8145 4.40213 13.9474 4.40213C17.0803 4.40213 19.6197 6.94237 19.6197 10.0744C19.6197 13.2064 17.0794 15.7449 13.9474 15.7449Z" fill="#C5C200"/>
<path d="M12.0714 7.67635L12.3152 8.7919L13.5226 8.22396H13.5367V13.2152H14.9773V6.88672H13.7452L12.0714 7.67635Z" fill="#C5C200"/>
</g>
<defs>
<clipPath id="clip0_278_424">
<rect width="28" height="28" fill="white"/>
</clipPath>
</defs>
</svg>
