<svg width="20" height="20" viewBox="0 0 20 20" fill="none" xmlns="http://www.w3.org/2000/svg">
<path d="M10.8837 1.875C10.6493 1.64066 10.3315 1.50902 10 1.50902C9.66854 1.50902 9.35066 1.64066 9.11625 1.875L0.807496 10.1825C0.749386 10.2406 0.703291 10.3096 0.671842 10.3855C0.640393 10.4614 0.624207 10.5428 0.624207 10.625C0.624207 10.7072 0.640393 10.7886 0.671842 10.8645C0.703291 10.9404 0.749386 11.0094 0.807496 11.0675C0.924854 11.1849 1.08403 11.2508 1.25 11.2508C1.33218 11.2508 1.41355 11.2346 1.48948 11.2032C1.5654 11.1717 1.63439 11.1256 1.6925 11.0675L2.5 10.2588V16.875C2.5 17.3723 2.69754 17.8492 3.04917 18.2008C3.4008 18.5525 3.87772 18.75 4.375 18.75H15.625C16.1223 18.75 16.5992 18.5525 16.9508 18.2008C17.3025 17.8492 17.5 17.3723 17.5 16.875V10.2588L18.3075 11.0675C18.4249 11.1849 18.584 11.2508 18.75 11.2508C18.916 11.2508 19.0751 11.1849 19.1925 11.0675C19.3099 10.9501 19.3758 10.791 19.3758 10.625C19.3758 10.459 19.3099 10.2999 19.1925 10.1825L16.25 7.24125V3.125C16.25 2.95924 16.1841 2.80027 16.0669 2.68306C15.9497 2.56585 15.7908 2.5 15.625 2.5H14.375C14.2092 2.5 14.0503 2.56585 13.9331 2.68306C13.8158 2.80027 13.75 2.95924 13.75 3.125V4.74125L10.8837 1.875ZM16.25 9.00875V16.875C16.25 17.0408 16.1841 17.1997 16.0669 17.3169C15.9497 17.4342 15.7908 17.5 15.625 17.5H4.375C4.20924 17.5 4.05026 17.4342 3.93305 17.3169C3.81584 17.1997 3.75 17.0408 3.75 16.875V9.00875L10 2.75875L16.25 9.00875Z" fill="#054F00"/>
</svg>
