<svg width="20" height="20" viewBox="0 0 20 20" fill="none" xmlns="http://www.w3.org/2000/svg">
<path d="M10.8838 1.875C10.6494 1.64066 10.3315 1.50902 10.0001 1.50902C9.6686 1.50902 9.35072 1.64066 9.11631 1.875L0.807557 10.1825C0.749447 10.2406 0.703352 10.3096 0.671903 10.3855C0.640454 10.4614 0.624268 10.5428 0.624268 10.625C0.624268 10.7072 0.640454 10.7886 0.671903 10.8645C0.703352 10.9404 0.749447 11.0094 0.807557 11.0675C0.924915 11.1849 1.08409 11.2508 1.25006 11.2508C1.33224 11.2508 1.41361 11.2346 1.48954 11.2032C1.56546 11.1717 1.63445 11.1256 1.69256 11.0675L2.50006 10.2588V16.875C2.50006 17.3723 2.6976 17.8492 3.04923 18.2008C3.40086 18.5525 3.87778 18.75 4.37506 18.75H15.6251C16.1223 18.75 16.5993 18.5525 16.9509 18.2008C17.3025 17.8492 17.5001 17.3723 17.5001 16.875V10.2588L18.3076 11.0675C18.4249 11.1849 18.5841 11.2508 18.7501 11.2508C18.916 11.2508 19.0752 11.1849 19.1926 11.0675C19.3099 10.9501 19.3758 10.791 19.3758 10.625C19.3758 10.459 19.3099 10.2999 19.1926 10.1825L16.2501 7.24125V3.125C16.2501 2.95924 16.1842 2.80027 16.067 2.68306C15.9498 2.56585 15.7908 2.5 15.6251 2.5H14.3751C14.2093 2.5 14.0503 2.56585 13.9331 2.68306C13.8159 2.80027 13.7501 2.95924 13.7501 3.125V4.74125L10.8838 1.875ZM16.2501 9.00875V16.875C16.2501 17.0408 16.1842 17.1997 16.067 17.3169C15.9498 17.4342 15.7908 17.5 15.6251 17.5H4.37506C4.2093 17.5 4.05033 17.4342 3.93312 17.3169C3.81591 17.1997 3.75006 17.0408 3.75006 16.875V9.00875L10.0001 2.75875L16.2501 9.00875Z" fill="#F6F6F6"/>
</svg>
