<svg width="20" height="20" viewBox="0 0 20 20" fill="none" xmlns="http://www.w3.org/2000/svg">
<path d="M7.5 7.75875V19.0625C7.5 19.3111 7.59877 19.5496 7.77459 19.7254C7.9504 19.9012 8.18886 20 8.4375 20C8.68614 20 8.9246 19.9012 9.10041 19.7254C9.27623 19.5496 9.375 19.3111 9.375 19.0625V13.125C9.375 12.9592 9.44085 12.8003 9.55806 12.6831C9.67527 12.5658 9.83424 12.5 10 12.5C10.1658 12.5 10.3247 12.5658 10.4419 12.6831C10.5592 12.8003 10.625 12.9592 10.625 13.125V19.0625C10.625 19.3111 10.7238 19.5496 10.8996 19.7254C11.0754 19.9012 11.3139 20 11.5625 20C11.8111 20 12.0496 19.9012 12.2254 19.7254C12.4012 19.5496 12.5 19.3111 12.5 19.0625V8.4375C12.5 8.35462 12.5329 8.27513 12.5915 8.21653C12.6501 8.15792 12.7296 8.125 12.8125 8.125C12.8954 8.125 12.9749 8.15792 13.0335 8.21653C13.0921 8.27513 13.125 8.35462 13.125 8.4375V11.5625C13.125 11.8111 13.2238 12.0496 13.3996 12.2254C13.5754 12.4012 13.8139 12.5 14.0625 12.5C14.3111 12.5 14.5496 12.4012 14.7254 12.2254C14.9012 12.0496 15 11.8111 15 11.5625V8.125C15 7.13044 14.6049 6.17661 13.9017 5.47335C13.1984 4.77009 12.2446 4.375 11.25 4.375H7.795C7.60099 4.37479 7.40969 4.32943 7.23625 4.2425L6.82375 4.03625C6.65163 3.95025 6.50682 3.81807 6.4055 3.6545C6.30418 3.49093 6.25034 3.30241 6.25 3.11V0.9375C6.25 0.68886 6.15123 0.450403 5.97541 0.274587C5.7996 0.098772 5.56114 0 5.3125 0C5.06386 0 4.8254 0.098772 4.64959 0.274587C4.47377 0.450403 4.375 0.68886 4.375 0.9375V3.54125C4.375 4.435 4.88 5.25375 5.68 5.6525L6.875 6.25C7.275 6.65 7.5 7.1925 7.5 7.75875Z" fill="#4E4E4E"/>
<path d="M10 3.75C10.4973 3.75 10.9742 3.55246 11.3258 3.20083C11.6775 2.84919 11.875 2.37228 11.875 1.875C11.875 1.37772 11.6775 0.900805 11.3258 0.549175C10.9742 0.197544 10.4973 0 10 0C9.50272 0 9.02581 0.197544 8.67417 0.549175C8.32254 0.900805 8.125 1.37772 8.125 1.875C8.125 2.37228 8.32254 2.84919 8.67417 3.20083C9.02581 3.55246 9.50272 3.75 10 3.75Z" fill="#4E4E4E"/>
</svg>
