<svg width="28" height="28" viewBox="0 0 28 28" fill="none" xmlns="http://www.w3.org/2000/svg">
<g clip-path="url(#clip0_278_432)">
<path d="M5.73408 18.7691L3.32809 25.5852L7.68871 24.1305L10.1689 28L12.6049 21.1L10.2908 19.0845L5.73408 18.7691Z" fill="#B6B6B6"/>
<path d="M22.2668 18.7691L17.711 19.0845L15.396 21.1L17.8311 28L20.3113 24.1305L24.6728 25.5852L22.2668 18.7691Z" fill="#B6B6B6"/>
<path d="M21.1601 17.287L21.4427 13.209L24.1269 10.1274L21.4427 7.04483L21.1601 2.96685L17.0839 2.68421L14.0013 0L10.9179 2.68421L6.84078 2.96685L6.55814 7.04571L3.87482 10.1283L6.55814 13.2099L6.84078 17.287L10.9188 17.5688L14.0022 20.2512L17.0847 17.5688L21.1601 17.287ZM13.9474 15.7449C10.8154 15.7449 8.27518 13.2055 8.27518 10.0744C8.27518 6.94325 10.8145 4.40213 13.9474 4.40213C17.0803 4.40213 19.6197 6.94237 19.6197 10.0744C19.6197 13.2064 17.0794 15.7449 13.9474 15.7449Z" fill="#B6B6B6"/>
<path d="M12.2304 12.5V11.6912L14.1202 9.94137C14.2809 9.78583 14.4157 9.64584 14.5246 9.52141C14.6352 9.39698 14.719 9.27514 14.776 9.15589C14.8331 9.03492 14.8616 8.90444 14.8616 8.76445C14.8616 8.60891 14.8262 8.47498 14.7553 8.36264C14.6844 8.24858 14.5877 8.1613 14.465 8.10082C14.3423 8.0386 14.2031 8.00749 14.0476 8.00749C13.8851 8.00749 13.7434 8.04033 13.6225 8.106C13.5015 8.17167 13.4082 8.26586 13.3425 8.38857C13.2768 8.51127 13.244 8.6573 13.244 8.82667H12.1785C12.1785 8.4793 12.2572 8.17772 12.4144 7.92195C12.5717 7.66617 12.792 7.46829 13.0755 7.3283C13.3589 7.18832 13.6855 7.11832 14.0554 7.11832C14.4356 7.11832 14.7665 7.18572 15.0482 7.32053C15.3317 7.4536 15.552 7.63852 15.7093 7.87528C15.8666 8.11205 15.9452 8.38338 15.9452 8.68928C15.9452 8.88975 15.9054 9.08763 15.8259 9.28292C15.7482 9.47821 15.609 9.6951 15.4086 9.93359C15.2081 10.1704 14.9255 10.4547 14.5609 10.7865L13.7858 11.546V11.5823H16.0152V12.5H12.2304Z" fill="#B6B6B6"/>
</g>
<defs>
<clipPath id="clip0_278_432">
<rect width="28" height="28" fill="white"/>
</clipPath>
</defs>
</svg>
