<svg width="28" height="28" viewBox="0 0 28 28" fill="none" xmlns="http://www.w3.org/2000/svg">
<g clip-path="url(#clip0_278_440)">
<path d="M5.73408 18.7691L3.32809 25.5852L7.68871 24.1305L10.1689 28L12.6049 21.1L10.2908 19.0845L5.73408 18.7691Z" fill="#A36200"/>
<path d="M22.2668 18.7691L17.711 19.0845L15.396 21.1L17.8311 28L20.3113 24.1305L24.6728 25.5852L22.2668 18.7691Z" fill="#A36200"/>
<path d="M21.1601 17.287L21.4427 13.209L24.1269 10.1274L21.4427 7.04483L21.1601 2.96685L17.0839 2.68421L14.0013 0L10.9179 2.68421L6.84078 2.96685L6.55814 7.04571L3.87482 10.1283L6.55814 13.2099L6.84078 17.287L10.9188 17.5688L14.0022 20.2512L17.0847 17.5688L21.1601 17.287ZM13.9474 15.7449C10.8154 15.7449 8.27518 13.2055 8.27518 10.0744C8.27518 6.94325 10.8145 4.40213 13.9474 4.40213C17.0803 4.40213 19.6197 6.94237 19.6197 10.0744C19.6197 13.2064 17.0794 15.7449 13.9474 15.7449Z" fill="#A36200"/>
<path d="M13.8927 12.5726C13.5056 12.5726 13.1608 12.506 12.8584 12.373C12.5577 12.2382 12.32 12.0533 12.1455 11.8182C11.9727 11.5815 11.8837 11.3084 11.8785 10.999H13.0087C13.0156 11.1287 13.058 11.2427 13.1358 11.3412C13.2153 11.438 13.3207 11.5132 13.452 11.5668C13.5834 11.6203 13.7311 11.6471 13.8953 11.6471C14.0664 11.6471 14.2176 11.6169 14.349 11.5564C14.4803 11.4959 14.5831 11.4121 14.6575 11.3049C14.7318 11.1978 14.7689 11.0742 14.7689 10.9342C14.7689 10.7925 14.7292 10.6672 14.6497 10.5583C14.5719 10.4477 14.4596 10.3613 14.3127 10.2991C14.1675 10.2369 13.9947 10.2058 13.7942 10.2058H13.2991V9.38143H13.7942C13.9636 9.38143 14.1131 9.35205 14.2427 9.29329C14.374 9.23453 14.476 9.1533 14.5486 9.04961C14.6212 8.94419 14.6575 8.82148 14.6575 8.6815C14.6575 8.54843 14.6255 8.43177 14.5615 8.33153C14.4993 8.22957 14.4112 8.15007 14.2971 8.09304C14.1848 8.03601 14.0534 8.00749 13.9031 8.00749C13.751 8.00749 13.6119 8.03514 13.4857 8.09045C13.3596 8.14402 13.2585 8.22093 13.1824 8.32116C13.1064 8.4214 13.0658 8.53892 13.0606 8.67372H11.9848C11.99 8.36783 12.0772 8.09822 12.2466 7.86491C12.416 7.6316 12.6441 7.44928 12.931 7.31793C13.2196 7.18486 13.5453 7.11832 13.9083 7.11832C14.2747 7.11832 14.5952 7.18486 14.87 7.31793C15.1448 7.45101 15.3583 7.63074 15.5103 7.85714C15.6641 8.08181 15.7402 8.33413 15.7385 8.6141C15.7402 8.91135 15.6477 9.15935 15.4611 9.3581C15.2762 9.55684 15.0351 9.683 14.7378 9.73658V9.77805C15.1284 9.82817 15.4257 9.96384 15.6296 10.185C15.8352 10.4045 15.9372 10.6793 15.9355 11.0094C15.9372 11.3118 15.8499 11.5806 15.6737 11.8156C15.4991 12.0507 15.258 12.2356 14.9504 12.3704C14.6428 12.5052 14.2902 12.5726 13.8927 12.5726Z" fill="#A36200"/>
</g>
<defs>
<clipPath id="clip0_278_440">
<rect width="28" height="28" fill="white"/>
</clipPath>
</defs>
</svg>
